<svg xmlns="http://www.w3.org/2000/svg" viewBox="0 0 221.94 221.94"><defs><style>.cls-1{fill:#fff;}</style></defs><g id="Layer_2" data-name="Layer 2"><g id="Layer_1-2" data-name="Layer 1"><rect class="cls-1" x="107.18" y="14.37" width="46.8" height="46.8" transform="matrix(0.97, 0.26, -0.26, 0.97, 14.22, -32.51)"/><path class="cls-1" d="M180.38,34h0a46.8,46.8,0,0,1,46.8,46.8v0a0,0,0,0,1,0,0h-46.8a0,0,0,0,1,0,0V34A0,0,0,0,1,180.38,34Z" transform="translate(21.79 -50.79) rotate(15)"/><rect class="cls-1" x="160.77" y="107.18" width="46.8" height="46.8" transform="translate(357.97 -13.51) rotate(105)"/><path class="cls-1" d="M141.16,180.38h0a46.8,46.8,0,0,1,46.8,46.8v0a0,0,0,0,1,0,0h-46.8a0,0,0,0,1,0,0v-46.8A0,0,0,0,1,141.16,180.38Z" transform="translate(403.99 97.58) rotate(105)"/><rect class="cls-1" x="67.95" y="160.77" width="46.8" height="46.8" transform="matrix(-0.97, -0.26, 0.26, -0.97, 131.93, 385.71)"/><path class="cls-1" d="M-5.25,141.16h0A46.8,46.8,0,0,1,41.55,188v0a0,0,0,0,1,0,0H-5.25a0,0,0,0,1,0,0v-46.8A0,0,0,0,1-5.25,141.16Z" transform="translate(-6.9 328.2) rotate(-165)"/><rect class="cls-1" x="14.37" y="67.95" width="46.8" height="46.8" transform="translate(-60.25 104.19) rotate(-75)"/><rect class="cls-1" x="87.57" y="87.57" width="46.8" height="46.8" transform="translate(32.5 -24.94) rotate(15)"/><path class="cls-1" d="M80.78-5.25h0a0,0,0,0,1,0,0v46.8a0,0,0,0,1,0,0H34a0,0,0,0,1,0,0v0A46.8,46.8,0,0,1,80.78-5.25Z" transform="translate(6.65 -14.23) rotate(15)"/></g></g></svg>